# Blender v2.82 (sub 7) OBJ File: 'landing_pad.blend'
# www.blender.org
o Plane
v 7.000000 0.000000 -20.000000
v 5.000000 0.000000 -20.000000
v 14.000000 -4.000000 -16.000000
v 8.792893 0.250000 -19.500000
v 10.000000 0.000000 -19.000000
v 9.500000 0.250000 -17.207108
v 14.000000 -4.000000 -7.000000
v 9.000000 0.000000 -16.000000
v 10.000000 0.000000 -15.000000
v 9.500000 0.250000 -12.000000
v 9.500000 0.250000 -8.207107
v 6.000000 0.250000 -12.000000
v 9.000000 0.000000 -7.000000
v 9.000000 0.000000 -5.000000
v 9.500000 0.250000 -3.792893
v 8.000000 0.250000 -18.000000
v 5.000000 0.250000 -16.000000
v 6.000000 0.000000 -19.000000
v 14.000000 -4.000000 -4.000000
v 10.000000 -1.000000 -7.000000
v 14.000000 -4.000000 -12.000000
v 10.000000 -1.000000 -5.000000
v 10.000000 -1.000000 -16.000000
v 6.000000 -1.000000 -20.000000
v 14.000000 -4.000000 -19.000000
v 14.000000 -4.000000 -23.000000
v 13.000000 -4.000000 -24.000000
v 9.000000 -4.000000 -24.000000
v 6.000000 -4.000000 -24.000000
v 4.000000 -4.000000 -24.000000
v 4.792893 0.250000 -19.500000
v 9.500000 0.250000 -18.792892
v 9.000000 0.000000 -20.000000
v 10.000000 0.000000 -17.000000
v 8.292893 0.250000 -16.000000
v 9.500000 0.250000 -14.792893
v 8.500000 0.250000 -7.207107
v 10.000000 0.000000 -8.000000
v 10.000000 0.000000 -12.000000
v 8.500000 0.250000 -4.792893
v 10.000000 0.000000 -4.000000
v 7.207107 0.250000 -19.500000
v 6.000000 0.250000 -18.292892
v -7.000000 0.000000 -20.000000
v -5.000000 0.000000 -20.000000
v -14.000000 -4.000000 -16.000000
v -8.792893 0.250000 -19.500000
v -10.000000 0.000000 -19.000000
v -9.500000 0.250000 -17.207108
v -14.000000 -4.000000 -7.000000
v -9.000000 0.000000 -16.000000
v -10.000000 0.000000 -15.000000
v -9.500000 0.250000 -12.000000
v -9.500000 0.250000 -8.207107
v -6.000000 0.250000 -12.000000
v -9.000000 0.000000 -7.000000
v -9.000000 0.000000 -5.000000
v -9.500000 0.250000 -3.792893
v -8.000000 0.250000 -18.000000
v -5.000000 0.250000 -16.000000
v -6.000000 0.000000 -19.000000
v 0.000000 0.000000 -20.000000
v -14.000000 -4.000000 -4.000000
v -10.000000 -1.000000 -7.000000
v -14.000000 -4.000000 -12.000000
v -10.000000 -1.000000 -5.000000
v -10.000000 -1.000000 -16.000000
v -6.000000 -1.000000 -20.000000
v -14.000000 -4.000000 -19.000000
v -14.000000 -4.000000 -23.000000
v -13.000000 -4.000000 -24.000000
v -9.000000 -4.000000 -24.000000
v -6.000000 -4.000000 -24.000000
v 0.000000 -4.000000 -24.000000
v -4.000000 -4.000000 -24.000000
v 0.000000 0.250000 -6.000000
v 0.000000 0.250000 -14.000000
v -4.792893 0.250000 -19.500000
v 0.000000 0.250000 -19.500000
v -9.500000 0.250000 -18.792892
v -9.000000 0.000000 -20.000000
v -10.000000 0.000000 -17.000000
v -8.292893 0.250000 -16.000000
v -9.500000 0.250000 -14.792893
v -8.500000 0.250000 -7.207107
v -10.000000 0.000000 -8.000000
v -10.000000 0.000000 -12.000000
v -8.500000 0.250000 -4.792893
v -10.000000 0.000000 -4.000000
v -7.207107 0.250000 -19.500000
v -6.000000 0.250000 -18.292892
v 7.000000 0.000000 20.000000
v 5.000000 0.000000 20.000000
v 14.000000 -4.000000 16.000000
v 8.792893 0.250000 19.500000
v 10.000000 0.000000 19.000000
v 9.500000 0.250000 17.207108
v 14.000000 -4.000000 7.000000
v 9.000000 0.000000 16.000000
v 10.000000 0.000000 15.000000
v 9.500000 0.250000 12.000000
v 9.500000 0.250000 8.207107
v 6.000000 0.250000 12.000000
v 9.000000 0.000000 7.000000
v 9.000000 0.000000 5.000000
v 9.500000 0.250000 3.792893
v 8.000000 0.250000 18.000000
v 5.000000 0.250000 16.000000
v 6.000000 0.000000 19.000000
v 10.000000 0.000000 0.000000
v 14.000000 -4.000000 0.000000
v 14.000000 -4.000000 4.000000
v 10.000000 -1.000000 7.000000
v 14.000000 -4.000000 12.000000
v 10.000000 -1.000000 5.000000
v 10.000000 -1.000000 16.000000
v 6.000000 -1.000000 20.000000
v 14.000000 -4.000000 19.000000
v 14.000000 -4.000000 23.000000
v 13.000000 -4.000000 24.000000
v 9.000000 -4.000000 24.000000
v 6.000000 -4.000000 24.000000
v 4.000000 -4.000000 24.000000
v 5.000000 0.250000 0.000000
v 9.500000 0.250000 0.000000
v 4.792893 0.250000 19.500000
v 9.500000 0.250000 18.792892
v 9.000000 0.000000 20.000000
v 10.000000 0.000000 17.000000
v 8.292893 0.250000 16.000000
v 9.500000 0.250000 14.792893
v 8.500000 0.250000 7.207107
v 10.000000 0.000000 8.000000
v 10.000000 0.000000 12.000000
v 8.500000 0.250000 4.792893
v 10.000000 0.000000 4.000000
v 7.207107 0.250000 19.500000
v 6.000000 0.250000 18.292892
v -7.000000 0.000000 20.000000
v -5.000000 0.000000 20.000000
v -14.000000 -4.000000 16.000000
v -8.792893 0.250000 19.500000
v -10.000000 0.000000 19.000000
v -9.500000 0.250000 17.207108
v -14.000000 -4.000000 7.000000
v -9.000000 0.000000 16.000000
v -10.000000 0.000000 15.000000
v -9.500000 0.250000 12.000000
v -9.500000 0.250000 8.207107
v -6.000000 0.250000 12.000000
v -9.000000 0.000000 7.000000
v -9.000000 0.000000 5.000000
v -9.500000 0.250000 3.792893
v -8.000000 0.250000 18.000000
v -5.000000 0.250000 16.000000
v -6.000000 0.000000 19.000000
v 0.000000 0.000000 20.000000
v -10.000000 0.000000 0.000000
v -14.000000 -4.000000 0.000000
v -14.000000 -4.000000 4.000000
v -10.000000 -1.000000 7.000000
v -14.000000 -4.000000 12.000000
v -10.000000 -1.000000 5.000000
v -10.000000 -1.000000 16.000000
v -6.000000 -1.000000 20.000000
v -14.000000 -4.000000 19.000000
v -14.000000 -4.000000 23.000000
v -13.000000 -4.000000 24.000000
v -9.000000 -4.000000 24.000000
v -6.000000 -4.000000 24.000000
v 0.000000 -4.000000 24.000000
v -4.000000 -4.000000 24.000000
v 0.000000 0.250000 0.000000
v -5.000000 0.250000 0.000000
v 0.000000 0.250000 6.000000
v 0.000000 0.250000 14.000000
v -9.500000 0.250000 0.000000
v -4.792893 0.250000 19.500000
v 0.000000 0.250000 19.500000
v -9.500000 0.250000 18.792892
v -9.000000 0.000000 20.000000
v -10.000000 0.000000 17.000000
v -8.292893 0.250000 16.000000
v -9.500000 0.250000 14.792893
v -8.500000 0.250000 7.207107
v -10.000000 0.000000 8.000000
v -10.000000 0.000000 12.000000
v -8.500000 0.250000 4.792893
v -10.000000 0.000000 4.000000
v -7.207107 0.250000 19.500000
v -6.000000 0.250000 18.292892
vt 17.706043 0.526620
vt 14.614354 -3.890078
vt 17.706043 -3.707132
vt 16.639759 -4.773416
vt 3.831331 -7.865108
vt 0.480922 -3.890078
vt 0.480922 -7.865108
vt 4.714670 -6.981768
vt 12.847681 0.526620
vt 11.081001 -4.773416
vt 5.780958 0.526620
vt 17.264378 -11.840137
vt 17.264378 -8.306778
vt 15.497697 -8.306778
vt 17.706043 -5.839704
vt 16.381046 -6.540101
vt 17.706043 -7.240491
vt 11.081001 -7.865108
vt 13.548077 -7.865108
vt 14.614354 -11.840137
vt 14.614354 -6.798820
vt 0.480922 0.526620
vt 6.847246 -6.981768
vt 7.730580 -7.865108
vt 17.081432 -7.865108
vt 15.680651 -7.865108
vt 4.014282 -11.840136
vt 0.480922 -8.306778
vt 0.480922 -11.840136
vt 4.014282 -8.306778
vt 4.897618 -7.423438
vt 4.897618 -8.306778
vt 6.664298 -7.423438
vt 6.664298 -8.306778
vt 7.547640 -8.306778
vt 14.614354 -7.423438
vt 13.731023 -8.306778
vt 14.614354 -8.306778
vt 17.264378 -4.773416
vt 18.147720 -5.656756
vt 18.147720 -4.773416
vt 18.147720 -3.890078
vt 20.797737 -11.840137
vt 11.081001 -11.840136
vt 11.081001 -8.306778
vt 6.664298 -11.840136
vt 21.681076 -10.956798
vt 18.147720 -7.423438
vt 21.681076 -7.423440
vt 21.681076 -4.773419
vt 21.681076 0.526620
vt 21.681076 -3.006738
vt 18.147720 0.526620
vt 17.706043 4.760372
vt 14.614354 4.943317
vt 16.639759 5.826659
vt 3.831331 8.918345
vt 0.480922 8.918345
vt 0.480922 4.943323
vt 4.714670 8.035010
vt 11.081001 5.826659
vt 17.264378 12.893373
vt 15.497697 9.360018
vt 17.264378 9.360018
vt 17.706043 6.892941
vt 16.381046 7.593335
vt 17.706043 8.293727
vt 13.548077 8.918345
vt 11.081001 8.918345
vt 14.614354 12.893373
vt 14.614354 7.852060
vt 6.847249 8.035010
vt 7.730585 8.918345
vt 17.081432 8.918345
vt 15.680651 8.918345
vt 4.014282 12.893377
vt 0.480922 12.893377
vt 0.480922 9.360018
vt 4.014282 9.360018
vt 4.897618 8.476680
vt 4.897618 9.360018
vt 6.664303 8.476680
vt 6.664303 9.360018
vt 7.547645 9.360018
vt 14.614354 8.476680
vt 14.614354 9.360018
vt 13.731023 9.360018
vt 17.264378 5.826659
vt 18.147720 5.826659
vt 18.147720 6.709998
vt 18.147720 4.943317
vt 20.797737 12.893373
vt 11.081001 12.893377
vt 11.081001 9.360018
vt 6.664303 12.893377
vt 21.681076 12.010037
vt 18.147720 8.476680
vt 21.681076 8.476680
vt 21.681076 5.826659
vt 21.681076 4.059978
vt -16.744209 0.526620
vt -16.744209 -3.707132
vt -13.652517 -3.890078
vt -15.677920 -4.773416
vt -2.869492 -7.865108
vt -3.752835 -6.981768
vt -11.885839 0.526620
vt -10.119157 -4.773416
vt -4.819116 0.526620
vt -16.302536 -11.840134
vt -14.535857 -8.306778
vt -16.302536 -8.306778
vt -16.744209 -5.839704
vt -15.419194 -6.540101
vt -16.744209 -7.240491
vt -12.586233 -7.865108
vt -10.119157 -7.865108
vt -13.652517 -11.840134
vt -13.652517 -6.798820
vt -5.885404 -6.981768
vt -6.768744 -7.865108
vt -16.119591 -7.865108
vt -14.718801 -7.865108
vt -3.052440 -11.840136
vt -3.052440 -8.306778
vt -3.935777 -7.423438
vt -3.935777 -8.306778
vt -5.702459 -7.423438
vt -5.702459 -8.306778
vt -6.585798 -8.306778
vt -13.652517 -7.423438
vt -13.652517 -8.306778
vt -12.769177 -8.306778
vt -16.302536 -4.773416
vt -17.185879 -4.773416
vt -17.185879 -5.656756
vt -17.185875 -3.890078
vt -19.835896 -11.840134
vt -10.119157 -11.840136
vt -10.119157 -8.306778
vt -5.702459 -11.840136
vt -20.719234 -10.956793
vt -17.185879 -7.423438
vt -20.719234 -7.423436
vt -20.719234 -4.773414
vt -20.719234 0.526620
vt -17.185879 0.526620
vt -20.719234 -3.006738
vt -13.652517 4.943323
vt -16.744209 4.760376
vt -15.677920 5.826659
vt -2.869492 8.918345
vt -3.752835 8.035010
vt -10.119157 5.826659
vt -16.302536 12.893377
vt -16.302536 9.360021
vt -14.535857 9.360021
vt -16.744209 6.892945
vt -15.419194 7.593341
vt -16.744209 8.293734
vt -10.119157 8.918350
vt -12.586233 8.918350
vt -13.652517 12.893377
vt -13.652517 7.852063
vt -5.885404 8.035010
vt -6.768744 8.918350
vt -16.119591 8.918350
vt -14.718801 8.918350
vt -3.052440 12.893377
vt -3.052440 9.360018
vt -3.935777 8.476680
vt -3.935777 9.360018
vt -5.702459 8.476680
vt -5.702459 9.360018
vt -6.585798 9.360021
vt -13.652517 8.476680
vt -12.769177 9.360021
vt -13.652517 9.360021
vt -16.302536 5.826659
vt -17.185879 6.709998
vt -17.185879 5.826659
vt -17.185879 4.943323
vt -19.835896 12.893377
vt -10.119157 12.893377
vt -10.119157 9.360021
vt -5.702459 12.893377
vt -20.719234 12.010037
vt -17.185879 8.476680
vt -20.719234 8.476680
vt -20.719234 5.826659
vt -20.719234 4.059983
vn 0.0000 1.0000 0.0000
vn 0.7071 0.7071 0.0000
vn 0.5774 0.5774 -0.5774
vn 0.5774 0.5774 0.5774
vn -0.5774 0.5774 -0.5774
vn 0.4685 0.6247 0.6247
vn 0.4685 0.6247 -0.6247
vn 0.6000 0.8000 0.0000
vn 0.4082 0.8165 -0.4082
vn 0.0000 0.7071 -0.7071
vn 0.0000 -0.7071 0.7071
vn -0.6247 0.6247 -0.4685
vn 0.6247 0.6247 -0.4685
vn 0.0000 0.8944 -0.4472
vn 0.3162 0.8944 -0.3162
vn 0.4472 0.8944 0.0000
vn 0.3162 0.8944 0.3162
vn -0.3162 0.8944 -0.3162
vn -0.7071 0.7071 0.0000
vn -0.5774 0.5774 0.5774
vn -0.4685 0.6247 0.6247
vn -0.4685 0.6247 -0.6247
vn -0.6000 0.8000 0.0000
vn -0.4082 0.8165 -0.4082
vn -0.4472 0.8944 0.0000
vn -0.3162 0.8944 0.3162
vn 0.4082 0.8165 0.4082
vn 0.0000 0.7071 0.7071
vn 0.0000 -0.7071 -0.7071
vn -0.6247 0.6247 0.4685
vn 0.6247 0.6247 0.4685
vn 0.0000 0.8944 0.4472
vn -0.4082 0.8165 0.4082
s off
f 79/1/1 17/2/1 31/3/1
f 31/3/1 17/2/1 43/4/1
f 15/5/1 124/6/1 125/7/1
f 40/8/1 124/6/1 15/5/1
f 77/9/1 12/10/1 17/2/1
f 76/11/1 12/10/1 77/9/1
f 25/12/2 5/13/2 34/14/2
f 42/15/1 43/4/1 16/16/1
f 42/15/1 16/16/1 4/17/1
f 12/10/1 10/18/1 36/19/1
f 3/20/2 25/12/2 34/14/2
f 12/10/1 35/21/1 17/2/1
f 17/2/1 35/21/1 16/16/1
f 173/22/1 124/6/1 76/11/1
f 76/11/1 37/23/1 12/10/1
f 37/23/1 11/24/1 12/10/1
f 76/11/1 124/6/1 40/8/1
f 17/2/1 16/16/1 43/4/1
f 32/25/1 16/16/1 6/26/1
f 36/19/1 35/21/1 12/10/1
f 6/26/1 16/16/1 35/21/1
f 10/18/1 12/10/1 11/24/1
f 76/11/1 40/8/1 37/23/1
f 16/16/1 32/25/1 4/17/1
f 79/1/1 77/9/1 17/2/1
f 19/27/2 110/28/2 111/29/2
f 110/28/2 19/27/2 41/30/2
f 14/31/3 41/30/3 22/32/3
f 13/33/2 14/31/2 22/32/2
f 20/34/2 13/33/2 22/32/2
f 38/35/4 13/33/4 20/34/4
f 8/36/3 9/37/3 23/38/3
f 34/14/4 8/36/4 23/38/4
f 18/39/5 1/40/5 24/41/5
f 2/42/3 18/39/3 24/41/3
f 26/43/2 5/13/2 25/12/2
f 34/14/6 23/38/6 3/20/6
f 23/38/7 9/37/7 3/20/7
f 21/44/2 3/20/2 9/37/2
f 39/45/2 21/44/2 9/37/2
f 20/34/6 7/46/6 38/35/6
f 7/46/2 21/44/2 38/35/2
f 39/45/2 38/35/2 21/44/2
f 22/32/8 7/46/8 20/34/8
f 19/27/3 22/32/3 41/30/3
f 22/32/8 19/27/8 7/46/8
f 27/47/9 5/13/9 26/43/9
f 5/13/9 27/47/9 33/48/9
f 27/47/10 28/49/10 33/48/10
f 1/40/10 33/48/10 28/49/10
f 28/49/10 29/50/10 1/40/10
f 74/51/11 30/52/11 62/53/11
f 62/53/10 2/42/10 30/52/10
f 24/41/12 1/40/12 29/50/12
f 24/41/13 29/50/13 2/42/13
f 29/50/10 30/52/10 2/42/10
f 31/3/14 62/53/14 79/1/14
f 4/17/15 5/13/15 33/48/15
f 6/26/16 5/13/16 32/25/16
f 6/26/17 8/36/17 34/14/17
f 36/19/15 8/36/15 35/21/15
f 11/24/17 13/33/17 38/35/17
f 11/24/16 39/45/16 10/18/16
f 40/8/16 13/33/16 37/23/16
f 15/5/15 14/31/15 40/8/15
f 15/5/16 110/28/16 41/30/16
f 42/15/18 18/39/18 43/4/18
f 31/3/15 18/39/15 2/42/15
f 36/19/16 39/45/16 9/37/16
f 4/17/14 1/40/14 42/15/14
f 79/1/1 78/54/1 60/55/1
f 78/54/1 91/56/1 60/55/1
f 58/57/1 177/58/1 174/59/1
f 88/60/1 58/57/1 174/59/1
f 77/9/1 60/55/1 55/61/1
f 76/11/1 77/9/1 55/61/1
f 69/62/19 82/63/19 48/64/19
f 90/65/1 59/66/1 91/56/1
f 90/65/1 47/67/1 59/66/1
f 55/61/1 84/68/1 53/69/1
f 46/70/19 82/63/19 69/62/19
f 55/61/1 60/55/1 83/71/1
f 60/55/1 59/66/1 83/71/1
f 173/22/1 76/11/1 174/59/1
f 76/11/1 55/61/1 85/72/1
f 85/72/1 55/61/1 54/73/1
f 76/11/1 88/60/1 174/59/1
f 60/55/1 91/56/1 59/66/1
f 80/74/1 49/75/1 59/66/1
f 84/68/1 55/61/1 83/71/1
f 49/75/1 83/71/1 59/66/1
f 53/69/1 54/73/1 55/61/1
f 76/11/1 85/72/1 88/60/1
f 59/66/1 47/67/1 80/74/1
f 79/1/1 60/55/1 77/9/1
f 63/76/19 159/77/19 158/78/19
f 158/78/19 89/79/19 63/76/19
f 57/80/5 66/81/5 89/79/5
f 56/82/19 66/81/19 57/80/19
f 64/83/19 66/81/19 56/82/19
f 86/84/20 64/83/20 56/82/20
f 51/85/5 67/86/5 52/87/5
f 82/63/20 67/86/20 51/85/20
f 61/88/3 68/89/3 44/90/3
f 45/91/5 68/89/5 61/88/5
f 70/92/19 69/62/19 48/64/19
f 82/63/21 46/70/21 67/86/21
f 67/86/22 46/70/22 52/87/22
f 65/93/19 52/87/19 46/70/19
f 87/94/19 52/87/19 65/93/19
f 64/83/21 86/84/21 50/95/21
f 50/95/19 86/84/19 65/93/19
f 87/94/19 65/93/19 86/84/19
f 66/81/23 64/83/23 50/95/23
f 63/76/5 89/79/5 66/81/5
f 66/81/23 50/95/23 63/76/23
f 71/96/24 70/92/24 48/64/24
f 48/64/24 81/97/24 71/96/24
f 71/96/10 81/97/10 72/98/10
f 44/90/10 72/98/10 81/97/10
f 72/98/10 44/90/10 73/99/10
f 74/51/11 62/53/11 75/100/11
f 62/53/10 75/100/10 45/91/10
f 68/89/13 73/99/13 44/90/13
f 68/89/12 45/91/12 73/99/12
f 73/99/10 45/91/10 75/100/10
f 62/53/14 78/54/14 79/1/14
f 47/67/18 48/64/18 80/74/18
f 48/64/25 49/75/25 80/74/25
f 49/75/26 51/85/26 83/71/26
f 51/85/18 84/68/18 83/71/18
f 54/73/26 56/82/26 85/72/26
f 87/94/25 54/73/25 53/69/25
f 56/82/25 88/60/25 85/72/25
f 57/80/18 58/57/18 88/60/18
f 58/57/25 158/78/25 177/58/25
f 61/88/15 90/65/15 91/56/15
f 78/54/18 61/88/18 91/56/18
f 84/68/25 87/94/25 53/69/25
f 44/90/14 47/67/14 90/65/14
f 179/101/1 126/102/1 108/103/1
f 126/102/1 138/104/1 108/103/1
f 106/105/1 125/7/1 124/6/1
f 135/106/1 106/105/1 124/6/1
f 176/107/1 108/103/1 103/108/1
f 175/109/1 176/107/1 103/108/1
f 118/110/2 129/111/2 96/112/2
f 137/113/1 107/114/1 138/104/1
f 137/113/1 95/115/1 107/114/1
f 103/108/1 131/116/1 101/117/1
f 94/118/2 129/111/2 118/110/2
f 103/108/1 108/103/1 130/119/1
f 108/103/1 107/114/1 130/119/1
f 173/22/1 175/109/1 124/6/1
f 175/109/1 103/108/1 132/120/1
f 132/120/1 103/108/1 102/121/1
f 175/109/1 135/106/1 124/6/1
f 108/103/1 138/104/1 107/114/1
f 127/122/1 97/123/1 107/114/1
f 131/116/1 103/108/1 130/119/1
f 97/123/1 130/119/1 107/114/1
f 101/117/1 102/121/1 103/108/1
f 175/109/1 132/120/1 135/106/1
f 107/114/1 95/115/1 127/122/1
f 179/101/1 108/103/1 176/107/1
f 112/124/2 111/29/2 110/28/2
f 110/28/2 136/125/2 112/124/2
f 105/126/4 115/127/4 136/125/4
f 104/128/2 115/127/2 105/126/2
f 113/129/2 115/127/2 104/128/2
f 133/130/3 113/129/3 104/128/3
f 99/131/4 116/132/4 100/133/4
f 129/111/3 116/132/3 99/131/3
f 109/134/20 117/135/20 92/136/20
f 93/137/4 117/135/4 109/134/4
f 119/138/2 118/110/2 96/112/2
f 129/111/7 94/118/7 116/132/7
f 116/132/6 94/118/6 100/133/6
f 114/139/2 100/133/2 94/118/2
f 134/140/2 100/133/2 114/139/2
f 113/129/7 133/130/7 98/141/7
f 98/141/2 133/130/2 114/139/2
f 134/140/2 114/139/2 133/130/2
f 115/127/8 113/129/8 98/141/8
f 112/124/4 136/125/4 115/127/4
f 115/127/8 98/141/8 112/124/8
f 120/142/27 119/138/27 96/112/27
f 96/112/27 128/143/27 120/142/27
f 120/142/28 128/143/28 121/144/28
f 92/136/28 121/144/28 128/143/28
f 121/144/28 92/136/28 122/145/28
f 171/146/29 157/147/29 123/148/29
f 157/147/28 123/148/28 93/137/28
f 117/135/30 122/145/30 92/136/30
f 117/135/31 93/137/31 122/145/31
f 122/145/28 93/137/28 123/148/28
f 157/147/32 126/102/32 179/101/32
f 95/115/17 96/112/17 127/122/17
f 96/112/16 97/123/16 127/122/16
f 97/123/15 99/131/15 130/119/15
f 99/131/17 131/116/17 130/119/17
f 102/121/15 104/128/15 132/120/15
f 134/140/16 102/121/16 101/117/16
f 104/128/16 135/106/16 132/120/16
f 105/126/17 106/105/17 135/106/17
f 106/105/16 110/28/16 125/7/16
f 109/134/26 137/113/26 138/104/26
f 126/102/17 109/134/17 138/104/17
f 131/116/16 134/140/16 101/117/16
f 92/136/32 95/115/32 137/113/32
f 179/101/1 155/149/1 178/150/1
f 178/150/1 155/149/1 191/151/1
f 153/152/1 174/59/1 177/58/1
f 188/153/1 174/59/1 153/152/1
f 176/107/1 150/154/1 155/149/1
f 175/109/1 150/154/1 176/107/1
f 166/155/19 143/156/19 182/157/19
f 190/158/1 191/151/1 154/159/1
f 190/158/1 154/159/1 142/160/1
f 150/154/1 148/161/1 184/162/1
f 141/163/19 166/155/19 182/157/19
f 150/154/1 183/164/1 155/149/1
f 155/149/1 183/164/1 154/159/1
f 173/22/1 174/59/1 175/109/1
f 175/109/1 185/165/1 150/154/1
f 185/165/1 149/166/1 150/154/1
f 175/109/1 174/59/1 188/153/1
f 155/149/1 154/159/1 191/151/1
f 180/167/1 154/159/1 144/168/1
f 184/162/1 183/164/1 150/154/1
f 144/168/1 154/159/1 183/164/1
f 148/161/1 150/154/1 149/166/1
f 175/109/1 188/153/1 185/165/1
f 154/159/1 180/167/1 142/160/1
f 179/101/1 176/107/1 155/149/1
f 160/169/19 158/78/19 159/77/19
f 158/78/19 160/169/19 189/170/19
f 152/171/20 189/170/20 163/172/20
f 151/173/19 152/171/19 163/172/19
f 161/174/19 151/173/19 163/172/19
f 186/175/5 151/173/5 161/174/5
f 146/176/20 147/177/20 164/178/20
f 182/157/5 146/176/5 164/178/5
f 156/179/4 139/180/4 165/181/4
f 140/182/20 156/179/20 165/181/20
f 167/183/19 143/156/19 166/155/19
f 182/157/22 164/178/22 141/163/22
f 164/178/21 147/177/21 141/163/21
f 162/184/19 141/163/19 147/177/19
f 187/185/19 162/184/19 147/177/19
f 161/174/22 145/186/22 186/175/22
f 145/186/19 162/184/19 186/175/19
f 187/185/19 186/175/19 162/184/19
f 163/172/23 145/186/23 161/174/23
f 160/169/20 163/172/20 189/170/20
f 163/172/23 160/169/23 145/186/23
f 168/187/33 143/156/33 167/183/33
f 143/156/33 168/187/33 181/188/33
f 168/187/28 169/189/28 181/188/28
f 139/180/28 181/188/28 169/189/28
f 169/189/28 170/190/28 139/180/28
f 171/146/29 172/191/29 157/147/29
f 157/147/28 140/182/28 172/191/28
f 165/181/31 139/180/31 170/190/31
f 165/181/30 170/190/30 140/182/30
f 170/190/28 172/191/28 140/182/28
f 178/150/32 157/147/32 179/101/32
f 142/160/26 143/156/26 181/188/26
f 144/168/25 143/156/25 180/167/25
f 144/168/18 146/176/18 182/157/18
f 184/162/26 146/176/26 183/164/26
f 149/166/18 151/173/18 186/175/18
f 149/166/25 187/185/25 148/161/25
f 188/153/25 151/173/25 185/165/25
f 153/152/26 152/171/26 188/153/26
f 153/152/25 158/78/25 189/170/25
f 190/158/17 156/179/17 191/151/17
f 178/150/26 156/179/26 140/182/26
f 184/162/25 187/185/25 147/177/25
f 142/160/32 139/180/32 190/158/32
f 31/3/14 2/42/14 62/53/14
f 4/17/15 32/25/15 5/13/15
f 6/26/16 34/14/16 5/13/16
f 6/26/17 35/21/17 8/36/17
f 36/19/15 9/37/15 8/36/15
f 11/24/17 37/23/17 13/33/17
f 11/24/16 38/35/16 39/45/16
f 40/8/16 14/31/16 13/33/16
f 15/5/15 41/30/15 14/31/15
f 15/5/16 125/7/16 110/28/16
f 42/15/18 1/40/18 18/39/18
f 31/3/15 43/4/15 18/39/15
f 36/19/16 10/18/16 39/45/16
f 4/17/14 33/48/14 1/40/14
f 62/53/14 45/91/14 78/54/14
f 47/67/18 81/97/18 48/64/18
f 48/64/25 82/63/25 49/75/25
f 49/75/26 82/63/26 51/85/26
f 51/85/18 52/87/18 84/68/18
f 54/73/26 86/84/26 56/82/26
f 87/94/25 86/84/25 54/73/25
f 56/82/25 57/80/25 88/60/25
f 57/80/18 89/79/18 58/57/18
f 58/57/25 89/79/25 158/78/25
f 61/88/15 44/90/15 90/65/15
f 78/54/18 45/91/18 61/88/18
f 84/68/25 52/87/25 87/94/25
f 44/90/14 81/97/14 47/67/14
f 157/147/32 93/137/32 126/102/32
f 95/115/17 128/143/17 96/112/17
f 96/112/16 129/111/16 97/123/16
f 97/123/15 129/111/15 99/131/15
f 99/131/17 100/133/17 131/116/17
f 102/121/15 133/130/15 104/128/15
f 134/140/16 133/130/16 102/121/16
f 104/128/16 105/126/16 135/106/16
f 105/126/17 136/125/17 106/105/17
f 106/105/16 136/125/16 110/28/16
f 109/134/26 92/136/26 137/113/26
f 126/102/17 93/137/17 109/134/17
f 131/116/16 100/133/16 134/140/16
f 92/136/32 128/143/32 95/115/32
f 178/150/32 140/182/32 157/147/32
f 142/160/26 180/167/26 143/156/26
f 144/168/25 182/157/25 143/156/25
f 144/168/18 183/164/18 146/176/18
f 184/162/26 147/177/26 146/176/26
f 149/166/18 185/165/18 151/173/18
f 149/166/25 186/175/25 187/185/25
f 188/153/25 152/171/25 151/173/25
f 153/152/26 189/170/26 152/171/26
f 153/152/25 177/58/25 158/78/25
f 190/158/17 139/180/17 156/179/17
f 178/150/26 191/151/26 156/179/26
f 184/162/25 148/161/25 187/185/25
f 142/160/32 181/188/32 139/180/32
